<?xml version="1.0" encoding="UTF-8"?>
<svg width="16" height="16" xmlns="http://www.w3.org/2000/svg">
 <g fill="#2e3436">
  <path transform="translate(-192 -248)" d="m198 248v4.586l-1.293-1.293a1 1 0 0 0-0.70703-0.29302h-1v1a1 1 0 0 0 0.29297 0.70703l2.293 2.293h4.8281l1.293-1.293a1.0001 1.0001 0 0 0 0-1.4141l-4-4a1.0001 1.0001 0 0 0-0.67773-0.29297 1.0001 1.0001 0 0 0-0.0293 0zm2 3.4141 1.5859 1.5859-1.5859 1.5859zm-5 8.5859v1h0.9707a1 1 0 0 0 0.0293 0 1 1 0 0 0 0.70703-0.29297l0.70703-0.70703zm3 0v4h1a1.0001 1.0001 0 0 0 0.70703-0.29297l3.707-3.707h-2.8281l-0.58594 0.58594v-0.58594z" font-family="sans-serif" font-weight="400" opacity=".35" overflow="visible" style="font-feature-settings:normal;font-variant-alternates:normal;font-variant-caps:normal;font-variant-ligatures:normal;font-variant-numeric:normal;font-variant-position:normal;isolation:auto;mix-blend-mode:normal;shape-padding:0;text-decoration-color:#000;text-decoration-line:none;text-decoration-style:solid;text-indent:0;text-orientation:mixed;text-transform:none;white-space:normal"/>
  <path transform="translate(-192 -248)" d="m192 256h16v3h-16z"/>
 </g>
</svg>
