<?xml version="1.0" encoding="UTF-8" standalone="no"?>
<svg
   width="16"
   height="16"
   version="1.1"
   id="svg8"
   sodipodi:docname="blueman-blocked-emblem.svg"
   inkscape:version="1.1.2 (0a00cf5339, 2022-02-04)"
   xmlns:inkscape="http://www.inkscape.org/namespaces/inkscape"
   xmlns:sodipodi="http://sodipodi.sourceforge.net/DTD/sodipodi-0.dtd"
   xmlns:xlink="http://www.w3.org/1999/xlink"
   xmlns="http://www.w3.org/2000/svg"
   xmlns:svg="http://www.w3.org/2000/svg">
  <defs
     id="defs12">
    <linearGradient
       inkscape:collect="always"
       id="linearGradient3709">
      <stop
         style="stop-color:#da4c45;stop-opacity:1"
         offset="0"
         id="stop3705" />
      <stop
         style="stop-color:#cd3336;stop-opacity:1"
         offset="1"
         id="stop3707" />
    </linearGradient>
    <linearGradient
       inkscape:collect="always"
       xlink:href="#linearGradient3709"
       id="linearGradient966"
       x1="200.06203"
       y1="256.16867"
       x2="200.01074"
       y2="259.05115"
       gradientUnits="userSpaceOnUse" />
    <linearGradient
       inkscape:collect="always"
       xlink:href="#linearGradient3709"
       id="linearGradient1340"
       gradientUnits="userSpaceOnUse"
       x1="199.30782"
       y1="247.8933"
       x2="199.57384"
       y2="264.09152" />
  </defs>
  <sodipodi:namedview
     id="namedview10"
     pagecolor="#ffffff"
     bordercolor="#666666"
     borderopacity="1.0"
     inkscape:pageshadow="2"
     inkscape:pageopacity="0.0"
     inkscape:pagecheckerboard="0"
     showgrid="false"
     inkscape:zoom="54.4375"
     inkscape:cx="4.1882893"
     inkscape:cy="7.9908152"
     inkscape:window-width="2560"
     inkscape:window-height="1352"
     inkscape:window-x="0"
     inkscape:window-y="0"
     inkscape:window-maximized="1"
     inkscape:current-layer="g6" />
  <g
     fill="#2e3436"
     id="g6">
    <path
       transform="translate(-192 -248)"
       d="m198 248v4.586l-1.293-1.293a1 1 0 0 0-0.70703-0.29302h-1v1a1 1 0 0 0 0.29297 0.70703l2.293 2.293h4.8281l1.293-1.293a1.0001 1.0001 0 0 0 0-1.4141l-4-4a1.0001 1.0001 0 0 0-0.67773-0.29297 1.0001 1.0001 0 0 0-0.0293 0zm2 3.4141 1.5859 1.5859-1.5859 1.5859zm-5 8.5859v1h0.9707a1 1 0 0 0 0.0293 0 1 1 0 0 0 0.70703-0.29297l0.70703-0.70703zm3 0v4h1a1.0001 1.0001 0 0 0 0.70703-0.29297l3.707-3.707h-2.8281l-0.58594 0.58594v-0.58594z"
       font-family="sans-serif"
       font-weight="400"
       opacity=".35"
       overflow="visible"
       style="font-feature-settings:normal;font-variant-alternates:normal;font-variant-caps:normal;font-variant-ligatures:normal;font-variant-numeric:normal;font-variant-position:normal;isolation:auto;mix-blend-mode:normal;shape-padding:0;text-decoration-color:#000;text-decoration-line:none;text-decoration-style:solid;text-indent:0;text-orientation:mixed;text-transform:none;white-space:normal;fill:url(#linearGradient1340);stroke:#b32a2d;stroke-opacity:1;stroke-width:0.2;stroke-miterlimit:4;stroke-dasharray:none;fill-opacity:1.0;opacity:0.64999999"
       id="path2" />
    <path
       transform="translate(-192 -248)"
       d="m192 256h16v3h-16z"
       id="path4"
       style="fill:url(#linearGradient966);stroke:#b32a2d;stroke-opacity:1;stroke-width:0.2;stroke-miterlimit:4;stroke-dasharray:none;fill-opacity:1" />
  </g>
</svg>
