<?xml version="1.0" encoding="UTF-8" standalone="no"?>
<svg
   version="1.1"
   viewBox="0 0 32 32"
   id="svg8"
   sodipodi:docname="blueman-paired-emblem.svg"
   inkscape:version="1.1.2 (0a00cf5339, 2022-02-04)"
   xmlns:inkscape="http://www.inkscape.org/namespaces/inkscape"
   xmlns:sodipodi="http://sodipodi.sourceforge.net/DTD/sodipodi-0.dtd"
   xmlns="http://www.w3.org/2000/svg"
   xmlns:svg="http://www.w3.org/2000/svg"
   xmlns:rdf="http://www.w3.org/1999/02/22-rdf-syntax-ns#"
   xmlns:cc="http://creativecommons.org/ns#"
   xmlns:dc="http://purl.org/dc/elements/1.1/">
  <metadata
     id="metadata14">
    <rdf:RDF>
      <cc:Work
         rdf:about="">
        <dc:format>image/svg+xml</dc:format>
        <dc:type
           rdf:resource="http://purl.org/dc/dcmitype/StillImage" />
      </cc:Work>
    </rdf:RDF>
  </metadata>
  <defs
     id="defs12" />
  <sodipodi:namedview
     pagecolor="#ffffff"
     bordercolor="#666666"
     borderopacity="1"
     objecttolerance="10"
     gridtolerance="10"
     guidetolerance="10"
     inkscape:pageopacity="0"
     inkscape:pageshadow="2"
     inkscape:window-width="2560"
     inkscape:window-height="1352"
     id="namedview10"
     showgrid="true"
     inkscape:zoom="18.649941"
     inkscape:cx="-22.841895"
     inkscape:cy="16.407559"
     inkscape:window-x="0"
     inkscape:window-y="0"
     inkscape:window-maximized="1"
     inkscape:current-layer="svg8"
     inkscape:document-rotation="0"
     inkscape:pagecheckerboard="0">
    <inkscape:grid
       type="xygrid"
       id="grid839" />
  </sodipodi:namedview>
  <rect
     x="3.5"
     y="3.5"
     width="25"
     height="25"
     rx="2"
     ry="2"
     color="#000000"
     fill="#8bbe43"
     overflow="visible"
     id="rect2"
     style="opacity:1;fill:#4db8db;fill-opacity:1;stroke-width:0.925926" />
  <path
     style="color:#000000;font-style:normal;font-variant:normal;font-weight:normal;font-stretch:normal;font-size:medium;line-height:normal;font-family:sans-serif;font-variant-ligatures:normal;font-variant-position:normal;font-variant-caps:normal;font-variant-numeric:normal;font-variant-alternates:normal;font-feature-settings:normal;text-indent:0;text-align:start;text-decoration:none;text-decoration-line:none;text-decoration-style:solid;text-decoration-color:#000000;letter-spacing:normal;word-spacing:normal;text-transform:none;writing-mode:lr-tb;direction:ltr;text-orientation:mixed;dominant-baseline:auto;baseline-shift:baseline;text-anchor:start;white-space:normal;shape-padding:0;clip-rule:nonzero;display:inline;overflow:visible;visibility:visible;opacity:0.35;isolation:auto;mix-blend-mode:normal;color-interpolation:sRGB;color-interpolation-filters:linearRGB;solid-color:#000000;solid-opacity:1;vector-effect:none;fill:#000000;fill-opacity:1;fill-rule:nonzero;stroke:none;stroke-width:1;stroke-linecap:butt;stroke-linejoin:miter;stroke-miterlimit:4;stroke-dasharray:none;stroke-dashoffset:0;stroke-opacity:1;color-rendering:auto;image-rendering:auto;shape-rendering:auto;text-rendering:auto;enable-background:accumulate"
     d="M 5.5,3 C 4.123649,3 3,4.1236486 3,5.5 v 21 C 3,27.876351 4.123649,29 5.5,29 h 21 C 27.876351,29 29,27.876351 29,26.5 V 5.5 C 29,4.1236486 27.876351,3 26.5,3 Z m 0,1 h 21 C 27.339649,4 28,4.6603514 28,5.5 v 21 C 28,27.339649 27.339649,28 26.5,28 H 5.5 C 4.660351,28 4,27.339649 4,26.5 V 5.5 C 4,4.6603514 4.660351,4 5.5,4 Z"
     id="rect2-6"
     inkscape:connector-curvature="0" />
  <path
     style="opacity:0.2;fill:#ffffff;fill-opacity:1;stroke-width:1.125"
     d="m 12.23,11.590151 c -2.801249,0 -5.0625,2.2725 -5.0625,5.0625 0,2.801249 2.261251,5.0625 5.0625,5.0625 2.1375,0 4.05,-1.35 4.77,-3.375 h 3.6675 v 2.25 h 3.375 v -2.25 h 1.125 v -3.375 H 17 c -0.72,-2.013749 -2.6325,-3.363749 -4.77,-3.375 z m 0,3.375 c 0.933751,0 1.6875,0.765 1.6875,1.6875 0,0.933749 -0.753749,1.6875 -1.6875,1.6875 -0.933749,0 -1.6875,-0.753751 -1.6875,-1.6875 0,-0.9225 0.753751,-1.6875 1.6875,-1.6875 z"
     id="path2"
     inkscape:connector-curvature="0" />
  <path
     style="fill:#004a6b;fill-opacity:1;stroke-width:1.125"
     d="m 12.229214,10.590151 c -2.801249,0 -5.0625,2.2725 -5.0625,5.0625 0,2.801249 2.261251,5.0625 5.0625,5.0625 2.1375,0 4.05,-1.35 4.77,-3.375 h 3.667503 v 2.25 h 3.375 v -2.25 h 1.125 v -3.375 h -8.167503 c -0.72,-2.013749 -2.6325,-3.363749 -4.77,-3.375 z m 0,3.375 c 0.933751,0 1.6875,0.765 1.6875,1.6875 0,0.933749 -0.753749,1.6875 -1.6875,1.6875 -0.933749,0 -1.6875,-0.753751 -1.6875,-1.6875 0,-0.9225 0.753751,-1.6875 1.6875,-1.6875 z"
     id="path2-5"
     inkscape:connector-curvature="0" />
</svg>
