<svg xmlns="http://www.w3.org/2000/svg" width="16" height="16" version="1.1">
 <path style="fill:#999999" d="M 9.6152344 1 C 9.2616624 1 9.031158 1.3006753 9 1.6660156 L 9 2 L 6.6425781 2 C 6.2877211 2 6 2.3345054 6 2.7011719 L 6 8.3339844 C 6 8.7006504 6.2877211 9 6.6425781 9 L 14.357422 9 C 14.71228 9 15 8.7006504 15 8.3339844 L 15 2.7011719 C 15 2.3345054 14.712226 1.9938062 14.357422 2 L 12 2 L 12 1.6660156 C 12 1.299349 11.738337 1 11.384766 1 L 9.6152344 1 z M 10.5 3 A 2.5 2.5 0 0 1 10.5 8 A 2.5 2.5 0 0 1 10.5 3 z M 10.501953 4 A 1.5 1.5 0 0 0 10.501953 7 A 1.5 1.5 0 0 0 10.501953 4 z M 2.09375 5 C 1.4828112 5 1 5.4623996 1 6.0488281 L 1 13.949219 C 1 14.536362 1.4828112 15 2.09375 15 L 5.90625 15 C 6.5164447 15 7 14.5376 7 13.951172 L 7 10 L 6.6425781 10 C 6.4139133 10 6.1965468 9.9514496 6 9.8652344 L 6 13 L 2 13 L 2 6 L 5 6 L 5 5 L 2.09375 5 z M 9 10 L 9 12.931641 C 9.09805 12.894471 9.244495 12.824073 9.40625 12.734375 C 9.728332 12.555785 9.8788914 12.537127 9.9433594 12.654297 C 9.9741694 12.710257 9.9771137 13.121538 9.9960938 14.335938 C 10.005294 14.924437 10.005659 15.249854 10.005859 15.4375 C 10.005859 15.9998 10.500434 15.999884 10.5 16 C 10.499566 16.000115 11.000053 16.001396 11 15.384766 L 11 13.521484 L 11 11.658203 C 10.99996 10.824735 10.189399 10.384218 9.5195312 10.107422 C 9.3753863 10.047862 9.1488219 10.013802 9 10 z M 14 10 C 13.851178 10.013802 13.624614 10.047862 13.480469 10.107422 C 12.810601 10.384218 12.00004 10.824735 12 11.658203 L 12 13.521484 L 12 15.384766 C 11.999947 16.001396 12.500434 16.000115 12.5 16 C 12.499566 15.999884 12.994141 15.9998 12.994141 15.4375 C 12.994341 15.249854 12.994706 14.924437 13.003906 14.335938 C 13.022886 13.121538 13.025831 12.710257 13.056641 12.654297 C 13.121109 12.537127 13.271668 12.555785 13.59375 12.734375 C 13.755505 12.824073 13.90195 12.894471 14 12.931641 L 14 10 z M 8.5996094 10.029297 C 8.4919519 10.062677 8.3517057 10.157725 8.28125 10.248047 C 8.0616676 10.529547 7.9773909 10.723098 8.0039062 11.578125 C 8.0295133 12.403464 8.1289466 12.767405 8.3730469 12.923828 C 8.4139899 12.950018 8.4777315 12.978758 8.5136719 12.986328 C 8.5380239 12.991428 8.5702594 12.992641 8.5996094 12.994141 L 8.5996094 10.029297 z M 14.400391 10.029297 L 14.400391 12.994141 C 14.429741 12.992641 14.461978 12.991428 14.486328 12.986328 C 14.522268 12.978758 14.586013 12.950018 14.626953 12.923828 C 14.871053 12.767405 14.970484 12.403464 14.996094 11.578125 C 15.022609 10.723098 14.938332 10.529547 14.71875 10.248047 C 14.648294 10.157725 14.508048 10.062677 14.400391 10.029297 z M 10.466797 14.027344 C 10.541567 14.021644 10.603035 14.08157 10.603516 14.160156 L 10.607422 14.800781 C 10.607365 14.878671 10.548722 14.945823 10.474609 14.951172 C 10.401189 14.955872 10.341266 14.89933 10.339844 14.822266 L 10.333984 14.179688 C 10.333165 14.101857 10.392724 14.033737 10.466797 14.027344 z M 12.505859 14.027344 C 12.514697 14.026092 12.523857 14.026631 12.533203 14.027344 C 12.607276 14.033737 12.666835 14.101857 12.666016 14.179688 L 12.660156 14.822266 C 12.658734 14.89933 12.598811 14.955872 12.525391 14.951172 C 12.451278 14.945823 12.392635 14.878671 12.392578 14.800781 L 12.396484 14.160156 C 12.396905 14.091393 12.443997 14.036103 12.505859 14.027344 z"/>
</svg>
