<svg xmlns="http://www.w3.org/2000/svg" width="16" height="16" version="1.1">
 <path style="fill:#999999" d="m 5,1 v 4 h 6 V 1 H 8 Z M 6,2 H 7 V 3 H 6 Z m 3,0 h 1 V 3 H 9 Z M 4,6 C 3.446,6 3,6.446 3,7 v 8 c 0,0.554 0.446,1 1,1 h 3 2 3 c 0.554,0 1,-0.446 1,-1 V 7 C 13,6.446 12.554,6 12,6 Z m 3.4335938,1.0039062 c 0.1205078,-0.015977 0.2427092,0.01249 0.34375,0.080078 l 3.0000002,2 c 0.306465,0.2033109 0.295992,0.6567574 -0.01953,0.8457031 L 8.9746094,11 10.757812,12.070312 c 0.315525,0.188946 0.325998,0.642393 0.01953,0.845704 l -3.0000002,2 C 7.4450668,15.137437 7.0000852,14.899294 7,14.5 v -2.316406 l -1.2421875,0.746094 c -0.2372128,0.143037 -0.5455068,0.06596 -0.6875,-0.171876 -0.1430373,-0.237213 -0.065964,-0.545506 0.171875,-0.6875 L 7,11.015625 v -0.03125 L 5.2421875,9.9296875 C 5.0043487,9.787694 4.9272752,9.4794001 5.0703125,9.2421875 5.212306,9.0043487 5.5205999,8.9272752 5.7578125,9.0703125 L 7,9.8164062 V 7.5 C 6.9997223,7.3154871 7.1010754,7.1458146 7.2636719,7.0585938 7.3165741,7.0303207 7.3741316,7.0117964 7.4335938,7.0039062 Z M 8,8.4335938 V 10.416016 L 9.5644531,9.4765625 Z m 0,3.1503902 v 1.982422 l 1.5644531,-1.042968 z"/>
</svg>
