<svg xmlns="http://www.w3.org/2000/svg" width="16" height="16" version="1.1">
 <path style="fill:#999999" d="M 3 1 L 3 3 L 4 3 L 4 1 L 3 1 z M 5 1 L 5 3 L 11 3 L 11 1 L 8 1 L 5 1 z M 12 1 L 12 3 L 13 3 L 13 1 L 12 1 z M 3 4 C 2.446 4 2 4.446 2 5 L 2 10 C 2 10.554 2.446 11 3 11 L 7 11 L 7 16 L 8 16 L 9 16 L 9 11 L 13 11 C 13.554 11 14 10.554 14 10 L 14 5 C 14 4.446 13.554 4 13 4 L 3 4 z M 5 6 L 11 6 L 11 7 L 5 7 L 5 6 z M 6 8 L 10 8 L 10 9 L 6 9 L 6 8 z M 3 12 L 3 14 L 5 14 L 5 12 L 3 12 z M 11 12 L 11 14 L 13 14 L 13 12 L 11 12 z"/>
</svg>
