<svg xmlns="http://www.w3.org/2000/svg" width="16" height="16" version="1.1">
 <path style="fill:#999999" d="M 7.9999998,0.99999995 C 11.863,0.99999995 15,4.137 15,8 c 0,3.863 -3.137,7 -7.0000002,7 -3.863,0 -7,-3.137 -7,-7.0000001 0,-3.863 3.137,-6.99999995 7,-6.99999995 z M 7.9999998,3 a 4.93,4.93 0 0 0 -2.75,0.813 L 12.187,10.75 A 4.93,4.93 0 0 0 13,8 C 13,5.24 10.76,3 7.9999998,3 Z m -4.188,2.25 a 4.93,4.93 0 0 0 -0.812,2.75 c 0,2.76 2.24,5 5,5 A 4.93,4.93 0 0 0 10.75,12.187 Z" font-family="Sans" font-weight="400" overflow="visible"/>
</svg>
