<svg xmlns="http://www.w3.org/2000/svg" width="16" height="16" version="1.1">
 <path style="fill:#999999" d="M 8 1 A 2 2 0 0 0 6 3 A 2 2 0 0 0 8 5 A 2 2 0 0 0 10 3 A 2 2 0 0 0 8 1 z M 5 6 L 5 6.8378906 A 1.0955335 0.95448954 0 0 0 5.1054688 6.9550781 C 5.8734716 7.6233848 6.9148195 8 8 8 A 4.0960154 3.5686757 0 0 0 10.896484 6.9550781 A 1.0955335 0.95448954 0 0 0 11 6.8535156 L 11 6 L 9 6 L 8.6152344 6 C 8.4191377 6.058567 8.2116273 6.0898436 8 6.0898438 C 7.7879787 6.0898438 7.5807789 6.058567 7.3847656 6 L 7 6 L 5 6 z M 3 8 L 3 9.0605469 A 1.0446155 0.97135601 0 0 0 3.0175781 9.0820312 A 7.0450372 6.5509649 0 0 0 12.978516 9.0820312 A 1.0448442 0.97156875 0 0 0 13 9.0546875 L 13 8 L 11.125 8 A 4.9539241 4.6065027 0 0 1 4.8710938 8 L 3 8 z M 1 10 L 1 11.388672 A 10.188602 9.587277 0 0 0 15 11.369141 L 15 10 L 13.519531 10 A 8.1078311 7.629312 0 0 1 2.4609375 10 L 1 10 z"/>
</svg>
