<svg xmlns="http://www.w3.org/2000/svg" width="16" height="16" version="1.1">
 <path style="fill:#999999" d="M 1.9394531 0 C 1.9322131 0.0057499975 1.9250537 0.011612125 1.9179688 0.017578125 C -0.63894832 2.7685789 -0.63894832 7.2275146 1.9179688 9.9785156 C 1.9269687 9.9858156 1.9360825 9.99301 1.9453125 10 L 3 10 L 3 8.125 C 1.6218214 6.3038017 1.6218214 3.692292 3 1.8710938 L 3 0 L 1.9394531 0 z M 13 0 L 13 1.8710938 C 14.378179 3.692292 14.378179 6.3038017 13 8.125 L 13 10 L 14.054688 10 C 14.063918 9.99301 14.073031 9.9858156 14.082031 9.9785156 C 16.638948 7.2275146 16.638948 2.7685789 14.082031 0.017578125 C 14.074951 0.011612125 14.067747 0.005749997 14.060547 0 L 13 0 z M 4.1621094 2 C 4.1207134 2.0316 4.0815314 2.066863 4.0449219 2.1054688 C 3.3766152 2.8734716 3 3.9148195 3 5 C 2.9998776 6.086335 3.3757474 7.1282324 4.0449219 7.8964844 C 4.0765909 7.9337144 4.1105309 7.968307 4.1464844 8 L 5 8 L 5 6 L 5 5.6152344 C 4.941433 5.4191377 4.9101565 5.2116273 4.9101562 5 C 4.9101562 4.7879787 4.941433 4.5807789 5 4.3847656 L 5 4 L 5 2 L 4.1621094 2 z M 11 2 L 11 4 L 11 4.3847656 C 11.05856 4.5807789 11.089844 4.7879787 11.089844 5 C 11.089844 5.2116273 11.05857 5.4191377 11 5.6152344 L 11 6 L 11 8 L 11.853516 8 C 11.889468 7.968307 11.923408 7.9337144 11.955078 7.8964844 C 12.624253 7.1282324 13.000122 6.086335 13 5 C 13 3.9148195 12.623385 2.8734716 11.955078 2.1054688 C 11.918471 2.0668629 11.879291 2.0316 11.837891 2 L 11 2 z M 8 3 C 6.8954309 3 6 3.8954305 6 5 C 6 6.1045695 6.8954309 7 8 7 C 9.10457 7 10 6.1045695 10 5 C 10 3.8954305 9.10457 3 8 3 z M 4 11 L 4 14 L 4 16 L 5 16 L 7 16 L 7 15 L 7 13 L 5 13 L 5 11 L 4 11 z M 8 11 L 8 16 L 11 16 L 11 11 L 8 11 z M 12 11 L 12 12 L 13 12 L 13 11 L 12 11 z M 14.416016 11 L 12 15.025391 L 12 16 L 12.583984 16 L 15 11.974609 L 15 11 L 14.416016 11 z M 9 12 L 10 12 L 10 15 L 9 15 L 9 12 z M 5 14 L 6 14 L 6 15 L 5 15 L 5 14 z M 14 15 L 14 16 L 15 16 L 15 15 L 14 15 z"/>
</svg>
