<svg xmlns="http://www.w3.org/2000/svg" width="16" height="16" version="1.1">
 <path style="fill:#999999" d="m 9.9997183,4.9998614 c 0,-1.1045695 -0.89543,-2 -2,-2 -1.1045691,0 -1.9999996,0.8954305 -1.9999996,2 0,1.1045695 0.8954305,2 1.9999996,2 1.10457,0 2,-0.8954305 2,-2 z m -4.9999996,-3 H 4.1618281 c -0.041396,0.0316 -0.080578,0.066863 -0.1171875,0.1054688 -0.6683067,0.7680028 -1.0449219,1.8093507 -1.0449219,2.8945312 -1.224e-4,1.086335 0.3757474,2.128232 1.0449219,2.896484 0.031669,0.03723 0.065609,0.071823 0.1015625,0.103516 h 0.8535156 v -2 -0.3847656 C 4.9411517,5.4189991 4.9098751,5.2114887 4.9098749,4.9998614 c 0,-0.2120213 0.031277,-0.4192211 0.089844,-0.6152344 V 3.9998614 Z m -2,-2.0000000375 H 1.9391718 C 1.9319318,0.00561136 1.9247728,0.01147336 1.9176878,0.01743936 c -2.55691707,2.75100074 -2.55691707,7.20993704 0,9.96093804 0.009,0.0073 0.018114,0.01449 0.027344,0.02148 h 1.0546869 v -1.874996 c -1.3781786,-1.8211983 -1.3781786,-4.4327079 0,-6.2539062 z"/>
 <rect style="fill:#999999" width="1" height="3" x="-12" y="4" transform="rotate(-90)"/>
 <path style="fill:#999999" d="m 8,11 v 5 h 3 v -5 z m 1,1 h 1 v 3 H 9 Z"/>
 <path style="fill:#999999" d="m 12,11 v 1 h 1 V 11 Z M 14.416016,11 12,15.025391 V 16 h 0.583984 L 15,11.974609 V 11 Z M 14,15 v 1 h 1 v -1 z"/>
 <rect style="fill:#999999" width="3" height="1" x="11" y="-7" transform="rotate(90)"/>
 <rect style="fill:#999999" width="3" height="1" x="4" y="13"/>
 <rect style="fill:#999999" width="1" height="3" x="6" y="13"/>
 <path style="fill:#999999" d="m 11,1.9998614 h 0.837891 c 0.0414,0.0316 0.08058,0.066863 0.117187,0.1054688 C 12.623385,2.873333 13,3.9146809 13,4.9998614 c 1.22e-4,1.086335 -0.375747,2.128232 -1.044922,2.896484 -0.03167,0.03723 -0.06561,0.071823 -0.101562,0.103516 H 11 v -2 -0.3847656 C 11.05857,5.4189991 11.08984,5.2114887 11.08984,4.9998614 11.08984,4.7878401 11.05856,4.5806403 11,4.384627 V 3.9998614 Z m 2,-2.0000000375 h 1.060547 c 0.0072,0.005749997 0.0144,0.0116119975 0.02148,0.0175779975 2.556917,2.75100074 2.556917,7.20993704 0,9.96093804 -0.009,0.0073 -0.01811,0.01449 -0.02734,0.02148 H 13 v -1.874996 c 1.378179,-1.8211983 1.378179,-4.4327079 0,-6.2539062 z"/>
 <rect style="fill:#999999" width="1" height="2" x="4" y="11"/>
</svg>
