<svg xmlns="http://www.w3.org/2000/svg" width="16" height="16" version="1.1">
 <path style="fill:#999999" d="M 8 0 C 6.8954305 0 6 0.8954305 6 2 C 6 3.1045695 6.8954305 4 8 4 C 9.1045695 4 10 3.1045695 10 2 C 10 0.8954305 9.1045695 0 8 0 z M 5 5 L 5 5.8378906 C 5.0316 5.8792866 5.066863 5.9184686 5.1054688 5.9550781 C 5.8734716 6.6233848 6.9148195 7 8 7 C 9.086335 7.0001224 10.128232 6.6242526 10.896484 5.9550781 C 10.933714 5.9234086 10.968307 5.8894686 11 5.8535156 L 11 5 L 9 5 L 8.6152344 5 C 8.4191377 5.058567 8.2116273 5.0898436 8 5.0898438 C 7.7879787 5.0898438 7.5807789 5.058567 7.3847656 5 L 7 5 L 5 5 z M 3 7 L 3 8.0605469 C 3.00575 8.0677869 3.0116121 8.0749463 3.0175781 8.0820312 C 5.7685788 10.638948 10.227515 10.638948 12.978516 8.0820312 C 12.985816 8.0730312 12.99301 8.0639175 13 8.0546875 L 13 7 L 11.125 7 C 9.3038017 8.3781786 6.692292 8.3781786 4.8710938 7 L 3 7 z M 2 11 L 2 16 L 3 16 L 3 11 L 2 11 z M 4 11 L 4 12 L 4 14 L 4 16 L 7 16 L 7 15 L 7 12 L 7 11 L 5 11 L 4 11 z M 8 11 L 8 16 L 11 16 L 11 11 L 8 11 z M 12 11 L 12 12 L 13 12 L 13 11 L 12 11 z M 14.416016 11 L 12 15.025391 L 12 16 L 12.583984 16 L 15 11.974609 L 15 11 L 14.416016 11 z M 5 12 L 6 12 L 6 15 L 5 15 L 5 13 L 5 12 z M 9 12 L 10 12 L 10 15 L 9 15 L 9 12 z M 14 15 L 14 16 L 15 16 L 15 15 L 14 15 z"/>
</svg>
