<svg xmlns="http://www.w3.org/2000/svg" width="16" height="16" version="1.1">
 <path style="fill:#999999" d="m 8,15 a 2,2 0 0 1 -2,-2 2,2 0 0 1 2,-2 2,2 0 0 1 2,2 2,2 0 0 1 -2,2 z M 5,10 V 9.1621094 A 1.0955335,0.95448954 0 0 1 5.1054688,9.0449219 C 5.8734716,8.3766152 6.9148195,8 8,8 A 4.0960154,3.5686757 0 0 1 10.896484,9.0449219 1.0955335,0.95448954 0 0 1 11,9.1464844 V 10 H 9 8.6152344 C 8.4191377,9.941433 8.2116273,9.9101564 8,9.9101562 7.7879787,9.9101562 7.5807789,9.9414332 7.3847656,10 H 7 Z M 3,8 V 6.9394531 a 1.0446155,0.97135601 0 0 1 0.017578,-0.021484 7.0450372,6.5509649 0 0 1 9.960938,0 A 1.0448442,0.97156875 0 0 1 13,6.9453125 V 8 H 11.125 A 4.9539241,4.6065027 0 0 0 4.8710938,8 Z M 1,6 V 4.611328 A 10.188602,9.587277 0 0 1 15,4.630859 V 6 H 13.519531 A 8.1078311,7.629312 0 0 0 2.4609375,6 Z"/>
</svg>
