<svg xmlns="http://www.w3.org/2000/svg" width="16" height="16" version="1.1">
 <path style="fill:#999999" d="M 7.9980469 0 C 6.1955626 -1.4802974e-16 4.3930785 0.63951022 3.0175781 1.9179688 C 3.0116121 1.9250537 3.00575 1.9322131 3 1.9394531 L 3 3 L 4.8710938 3 C 6.692292 1.6218214 9.3038017 1.6218214 11.125 3 L 13 3 L 13 1.9453125 C 12.99301 1.9360825 12.985816 1.9269687 12.978516 1.9179688 C 11.603015 0.63951021 9.8005312 1.4802974e-16 7.9980469 0 z M 8 3 C 6.9148195 3 5.8734716 3.3766152 5.1054688 4.0449219 C 5.066863 4.0815314 5.0316 4.1207134 5 4.1621094 L 5 5 L 7 5 L 7.3847656 5 C 7.5807789 4.941433 7.7879787 4.9101562 8 4.9101562 C 8.2116273 4.9101565 8.4191377 4.941433 8.6152344 5 L 9 5 L 11 5 L 11 4.1464844 C 10.968307 4.1105314 10.933714 4.0765914 10.896484 4.0449219 C 10.128232 3.3757474 9.086335 2.9998776 8 3 z M 8 6 C 6.8954305 6 6 6.8954305 6 8 C 6 9.1045695 6.8954305 10 8 10 C 9.1045695 10 10 9.1045695 10 8 C 10 6.8954305 9.1045695 6 8 6 z M 4 11 L 4 12 L 4 14 L 5 14 L 6 14 L 6 15 L 6 16 L 7 16 L 7 14 L 7 12 L 7 11 L 5 11 L 4 11 z M 8 11 L 8 16 L 11 16 L 11 11 L 8 11 z M 12 11 L 12 12 L 13 12 L 13 11 L 12 11 z M 14.416016 11 L 12 15.025391 L 12 16 L 12.583984 16 L 15 11.974609 L 15 11 L 14.416016 11 z M 5 12 L 6 12 L 6 13 L 5 13 L 5 12 z M 9 12 L 10 12 L 10 15 L 9 15 L 9 12 z M 14 15 L 14 16 L 15 16 L 15 15 L 14 15 z"/>
</svg>
